 <svg
          viewBox="0 0 32 32"
          version="1.1"
          xmlns="http://www.w3.org/2000/svg"
          x="0"
          y="0"
          xml:space="preserve"
          style="display: inline-block; width: 100%; height: 100%; stroke-width: 0; stroke: white; fill: white;"
        >
          <path
            transform="scale(1.4) translate(1,-5)"
            d="M19.196 23.429q0 0.232-0.179 0.411l-0.893 0.893q-0.179 0.179-0.411 0.179t-0.411-0.179l-7.018-7.018-7.018 7.018q-0.179 0.179-0.411 0.179t-0.411-0.179l-0.893-0.893q-0.179-0.179-0.179-0.411t0.179-0.411l8.321-8.321q0.179-0.179 0.411-0.179t0.411 0.179l8.321 8.321q0.179 0.179 0.179 0.411zM19.196 16.571q0 0.232-0.179 0.411l-0.893 0.893q-0.179 0.179-0.411 0.179t-0.411-0.179l-7.018-7.018-7.018 7.018q-0.179 0.179-0.411 0.179t-0.411-0.179l-0.893-0.893q-0.179-0.179-0.179-0.411t0.179-0.411l8.321-8.321q0.179-0.179 0.411-0.179t0.411 0.179l8.321 8.321q0.179 0.179 0.179 0.411z"
          ></path>
        </svg>